#!OML:ASF X:\2005_08_12_Meinard\c3d\meinard.ASF
:FULLY-SPECIFIED
:DEGREES
2899
root 4.81688 16.2629 0.312247 372.968 -85.1906 -393.812
lowerback 37.6066 0.722649 -0.475502
upperback 7.11264 -0.25352 -0.361848
thorax -10.6565 -0.498757 0.0399344
lowerneck -11.3127 1.26301 -2.66269
upperneck -4.91363 1.78341 9.06358
head 0.281949 0.929983 3.48446
rclavicle -5.96354e-016 1.11319e-014
rhumerus -37.0382 9.03542 -97.692
rradius 69.549
rwrist 15.8064
rhand 2.82623 -11.436
rfingers 7.12502
rthumb 28.2945 -39.3189
lclavicle -5.96354e-016 1.11319e-014
lhumerus -27.0844 -3.64944 -991.994
lradius 78.3218
lwrist 896.113
lhand -13.9658 2.30742
lfingers 7.12502
lthumb 12.162 31.9339
rfemur -172.63 -184.988 195.589
rtibia 40.3543
rfoot 157.664 161.442
rtoes 12.8423
lfemur -179.887 177.853 -194.85
ltibia 48.5384
lfoot -22.5873 14.396
ltoes 15.815
2900
root 4.80783 16.2609 0.360771 375.201 -85.4658 -396.08
lowerback 37.5718 0.707223 -0.514646
upperback 7.11555 -0.29185 -0.365107
thorax -10.6409 -0.517121 0.0728661
lowerneck -11.059 1.15309 -2.39893
upperneck -5.20815 1.61964 8.85097
head 0.155337 0.826793 3.34738
rclavicle -1.59028e-015 -7.95139e-016
rhumerus -36.9685 8.82462 -97.6671
rradius 69.0306
rwrist 15.9752
rhand 2.69947 -11.4243
rfingers 7.12502
rthumb 28.1733 -39.3272
lclavicle -1.59028e-015 -7.95139e-016
lhumerus -26.9101 -3.62395 -992.201
lradius 76.9982
lwrist 895.723
lhand -13.8741 2.19125
lfingers 7.12502
lthumb 12.2505 31.8125
rfemur -172.704 -185.205 195.526
rtibia 40.4921
rfoot 157.752 161.397
rtoes 12.9797
lfemur -179.712 177.519 -194.884
ltibia 48.5195
lfoot -22.7053 14.412
ltoes 15.5696
2901
root 4.799 16.2589 0.408706 377.509 -85.7323 -398.415
lowerback 37.5305 0.689185 -0.564564
upperback 7.12023 -0.336834 -0.36388
thorax -10.6209 -0.538314 0.118915
lowerneck -10.808 1.05428 -2.19514
upperneck -5.49104 1.47798 8.65156
head 0.0311806 0.736526 3.22904
rclavicle -2.5842e-015 -1.59028e-015
rhumerus -36.8844 8.62384 -97.6312
rradius 68.4973
rwrist 16.1854
rhand 2.61825 -11.4212
rfingers 7.12502
rthumb 28.0957 -39.3369
lclavicle -2.5842e-015 -1.59028e-015
lhumerus -26.7491 -3.54935 -992.395
lradius 75.6385
lwrist 895.336
lhand -13.756 2.18803
lfingers 7.12502
lthumb 12.3643 31.8024
rfemur -172.783 -185.44 195.458
rtibia 40.6365
rfoot 157.835 161.351
rtoes 12.9153
lfemur -179.547 177.272 -194.975
ltibia 48.4939
lfoot -22.7932 14.5273
ltoes 15.2747
2902
root 4.78981 16.2574 0.455106 380.091 -85.9866 -401.021
lowerback 37.477 0.675222 -0.612681
upperback 7.13282 -0.376763 -0.367024
thorax -10.5876 -0.557484 0.157132
lowerneck -10.6348 0.94792 -2.01718
upperneck -5.69773 1.325 8.45656
head -0.0546143 0.645201 3.11965
rclavicle 7.7526e-015 7.95139e-016
rhumerus -36.7787 8.40775 -97.5999
rradius 67.9479
rwrist 16.3693
rhand 2.51552 -11.4216
rfingers 7.12502
rthumb 27.9975 -39.3533
lclavicle 7.7526e-015 7.95139e-016
lhumerus -26.6039 -3.5227 -992.601
lradius 74.332
lwrist 894.959
lhand -13.6083 2.2349
lfingers 7.12502
lthumb 12.5068 31.8406
rfemur -172.869 -185.619 195.381
rtibia 40.7832
rfoot 157.943 161.319
rtoes 12.8891
lfemur -179.375 177.121 -195.096
ltibia 48.454
lfoot -22.8578 14.7054
ltoes 15.0331
2903
root 4.78035 16.2571 0.50093 383.215 -86.2256 -404.183
lowerback 37.4387 0.656757 -0.641167
upperback 7.14491 -0.414242 -0.361756
thorax -10.5602 -0.576184 0.193107
lowerneck -10.445 0.857959 -1.84265
upperneck -5.91115 1.19497 8.25805
head -0.146942 0.565096 3.01136
rclavicle 1.19271e-015 -1.43125e-014
rhumerus -36.6731 8.19873 -97.5693
rradius 67.3874
rwrist 16.5065
rhand 2.45398 -11.4714
rfingers 7.12502
rthumb 27.9387 -39.4127
lclavicle 1.19271e-015 -1.43125e-014
lhumerus -26.4469 -3.45488 -992.772
lradius 73.0056
lwrist 894.563
lhand -13.4756 2.30789
lfingers 7.12502
lthumb 12.6347 31.9058
rfemur -172.937 -185.797 195.334
rtibia 40.9267
rfoot 158.077 161.23
rtoes 12.8961
lfemur -179.179 176.991 -195.209
ltibia 48.4017
lfoot -22.9176 14.9056
ltoes 14.7521
2904
root 4.77068 16.2576 0.545587 386.542 -86.4311 -407.549
lowerback 37.4067 0.621146 -0.667859
upperback 7.14523 -0.471252 -0.355482
thorax -10.5481 -0.603243 0.237193
lowerneck -10.2516 0.812816 -1.5646
upperneck -6.07848 1.1116 8.0015
head -0.22721 0.507629 2.86655
rclavicle 1.98785e-016 -3.18055e-015
rhumerus -36.6093 8.00298 -97.5465
rradius 66.8391
rwrist 16.6503
rhand 2.39753 -11.5266
rfingers 7.12502
rthumb 27.8847 -39.4767
lclavicle 1.98785e-016 -3.18055e-015
lhumerus -26.3293 -3.32274 -992.941
lradius 71.7089
lwrist 894.174
lhand -13.3922 2.45666
lfingers 7.12502
lthumb 12.7151 32.0495
rfemur -173.004 -185.941 195.289
rtibia 41.066
rfoot 158.255 161.098
rtoes 13.0126
lfemur -178.987 176.903 -195.331
ltibia 48.3346
lfoot -22.9749 15.1125
ltoes 14.5078
2905
root 4.75844 16.2605 0.587694 390.404 -86.5982 -411.448
lowerback 37.3428 0.586923 -0.667631
upperback 7.16139 -0.515263 -0.342576
thorax -10.507 -0.625365 0.26858
lowerneck -10.2404 0.763184 -1.22466
upperneck -6.13017 1.00659 7.71802
head -0.238599 0.444422 2.70373
rclavicle -6.16232e-015 -7.95139e-016
rhumerus -36.5289 7.76736 -97.5218
rradius 66.2953
rwrist 16.78
rhand 2.30889 -11.5866
rfingers 7.12502
rthumb 27.8 -39.5505
lclavicle -6.16232e-015 -7.95139e-016
lhumerus -26.2049 -3.19666 -993.09
lradius 70.4355
lwrist 893.744
lhand -13.3305 2.58556
lfingers 7.12502
lthumb 12.7746 32.1747
rfemur -173.045 -186.091 195.295
rtibia 41.1969
rfoot 158.411 160.913
rtoes 13.0379
lfemur -178.79 176.844 -195.426
ltibia 48.2488
lfoot -22.9996 15.3316
ltoes 14.2647
2906
root 4.74661 16.2642 0.628708 394.418 -86.7314 -415.493
lowerback 37.2781 0.531358 -0.646946
upperback 7.1713 -0.578295 -0.336969
thorax -10.4726 -0.656169 0.289029
lowerneck -10.3039 0.726024 -0.980325
upperneck -6.12697 0.924949 7.51532
head -0.222078 0.397964 2.58835
rclavicle 7.95139e-015 1.51076e-014
rhumerus -36.4515 7.54296 -97.5063
rradius 65.7437
rwrist 16.9371
rhand 2.23044 -11.6395
rfingers 7.12502
rthumb 27.7249 -39.6154
lclavicle 7.95139e-015 1.51076e-014
lhumerus -26.1219 -3.00413 -993.234
lradius 69.2073
lwrist 893.278
lhand -13.3143 2.71308
lfingers 7.12502
lthumb 12.7903 32.3013
rfemur -173.093 -186.187 195.297
rtibia 41.3234
rfoot 158.605 160.741
rtoes 13.0605
lfemur -178.596 176.794 -195.518
ltibia 48.1437
lfoot -23.0299 15.5345
ltoes 14.056
2907
root 4.73451 16.2694 0.668785 398.785 -86.8515 -419.907
lowerback 37.2353 0.477469 -0.61492
upperback 7.17975 -0.635922 -0.332505
thorax -10.4478 -0.684925 0.300217
lowerneck -10.3671 0.69549 -0.780506
upperneck -6.09698 0.856411 7.35724
head -0.198219 0.360084 2.4971
rclavicle 8.24956e-015 1.19271e-014
rhumerus -36.3787 7.29474 -97.4877
rradius 65.1961
rwrist 17.1104
rhand 2.18113 -11.7051
rfingers 7.12502
rthumb 27.6778 -39.6886
lclavicle 8.24956e-015 1.19271e-014
lhumerus -26.0462 -2.78166 -993.35
lradius 67.9966
lwrist 892.775
lhand -13.3032 2.79626
lfingers 7.12502
lthumb 12.801 32.3838
rfemur -173.124 -186.258 195.304
rtibia 41.448
rfoot 158.792 160.554
rtoes 12.9563
lfemur -178.37 176.765 -195.618
ltibia 48.0099
lfoot -23.0597 15.7668
ltoes 13.8504
